<?xml version="1.0" standalone="no"?>
<!DOCTYPE svg PUBLIC "-//W3C//DTD SVG 20010904//EN"
 "http://www.w3.org/TR/2001/REC-SVG-20010904/DTD/svg10.dtd">
<svg version="1.0" xmlns="http://www.w3.org/2000/svg"
 width="1200.000000pt" height="1200.000000pt" viewBox="0 0 1200.000000 1200.000000"
 preserveAspectRatio="xMidYMid meet">
<metadata>
Created by potrace 1.14, written by Peter Selinger 2001-2017
</metadata>
<g transform="translate(0.000000,1200.000000) scale(0.100000,-0.100000)"
fill="#000000" stroke="none">
<path d="M2093 11759 c-103 -47 -187 -176 -281 -429 -181 -485 -281 -968 -341
-1656 -19 -213 -23 -278 -41 -649 -4 -93 -7 -466 -7 -828 l2 -657 -71 -83
c-84 -98 -222 -282 -289 -387 -73 -114 -241 -393 -248 -412 -10 -28 16 -45 98
-63 150 -32 538 -173 599 -218 10 -8 22 -45 33 -102 30 -160 34 -147 -92 -238
-60 -43 -167 -117 -237 -164 -121 -82 -139 -102 -120 -128 14 -20 409 -324
498 -383 49 -33 123 -74 164 -92 41 -17 76 -33 79 -36 3 -2 -16 -26 -41 -52
-64 -66 -112 -139 -173 -267 -89 -184 -153 -407 -216 -754 l-33 -184 23 -18
c13 -11 37 -19 54 -19 17 0 105 -12 196 -26 91 -15 261 -41 376 -58 l210 -32
-3 -30 c-7 -55 -80 -329 -111 -414 -17 -47 -47 -108 -66 -137 -45 -68 -46 -98
-3 -107 33 -7 297 8 438 25 128 15 244 37 332 65 44 14 81 24 83 22 2 -2 8
-45 14 -97 7 -51 24 -133 40 -182 l29 -88 -24 -16 c-78 -51 -287 -128 -393
-144 -78 -13 -105 -34 -97 -75 12 -60 231 -408 347 -551 l65 -81 -69 -44 c-38
-25 -111 -87 -163 -140 -206 -207 -292 -369 -518 -973 -79 -210 -83 -228 -62
-246 14 -11 26 -11 79 4 146 42 184 47 407 51 124 3 231 1 238 -4 10 -7 -5
-58 -68 -233 -98 -273 -145 -417 -138 -424 3 -3 257 -4 565 -3 l561 3 -86 78
-86 79 -56 -9 c-137 -20 -780 1 -780 26 0 4 28 34 61 66 80 78 140 156 217
284 63 105 73 139 48 160 -21 18 -214 33 -431 34 -210 1 -315 -10 -419 -44
-32 -11 -61 -18 -64 -14 -11 11 217 596 289 740 119 236 282 429 452 536 63
39 87 60 87 75 0 11 -24 45 -53 75 -69 72 -248 337 -346 512 -36 64 -39 60 62
77 78 12 186 51 307 108 47 22 85 40 86 39 0 -1 20 -38 44 -83 23 -45 73 -123
110 -175 95 -133 89 -134 239 43 66 79 158 183 204 231 l82 88 70 -103 c79
-117 231 -278 262 -278 25 0 37 15 99 120 31 55 77 112 126 162 l78 76 79 -47
c75 -46 207 -104 394 -174 l87 -33 -41 -31 c-112 -86 -227 -265 -266 -413 -23
-88 -23 -272 1 -360 53 -197 191 -373 367 -465 101 -53 146 -67 169 -53 16 10
23 9 43 -10 21 -20 34 -22 129 -22 177 0 325 50 470 160 295 223 363 658 155
983 -21 32 -31 57 -24 57 7 0 69 7 139 15 240 28 502 93 855 211 260 86 322
112 501 205 85 43 155 79 157 79 2 0 49 -55 105 -123 56 -67 116 -138 134
-157 18 -19 60 -69 94 -111 80 -100 118 -132 141 -120 9 5 47 70 83 143 94
190 105 216 136 333 15 58 30 105 33 105 3 0 37 -27 75 -60 84 -74 194 -143
404 -256 88 -47 162 -90 166 -95 17 -28 -279 -329 -393 -399 -46 -29 -73 -52
-73 -63 0 -10 19 -29 46 -45 177 -104 280 -206 413 -404 102 -154 221 -413
221 -483 0 -19 -54 -45 -175 -85 -119 -39 -347 -128 -435 -169 l-62 -30 -31
19 c-23 14 -34 16 -44 8 -10 -8 2 -27 60 -87 77 -81 109 -137 187 -331 24 -58
47 -110 52 -117 10 -13 -133 -85 -427 -217 -205 -93 -373 -141 -469 -134 -46
3 -51 1 -54 -20 -2 -12 1 -22 6 -22 6 0 18 -20 28 -45 l17 -45 828 0 c456 0
829 2 829 5 0 3 -34 85 -76 183 -185 433 -380 934 -370 951 3 4 40 21 81 36
91 33 111 56 101 117 -19 118 -109 315 -226 490 -122 184 -253 320 -377 390
-29 17 -53 31 -53 33 0 2 25 20 55 40 116 77 254 212 383 375 l20 25 44 -24
c23 -13 91 -55 149 -93 106 -68 137 -79 158 -55 15 19 106 272 142 397 46 163
61 260 68 460 5 155 8 184 21 182 8 -2 118 -6 245 -9 363 -9 818 25 858 65 18
18 18 22 -3 148 -64 394 -177 686 -363 937 -45 61 -56 82 -45 88 7 5 18 9 25
9 26 0 248 96 380 164 150 78 381 226 423 270 33 36 23 49 -76 106 -220 127
-429 301 -578 483 l-38 47 70 187 c156 417 277 874 416 1578 212 1075 324
2138 296 2806 -21 499 -95 954 -185 1136 -41 83 -112 153 -173 171 -55 17
-316 15 -432 -3 -182 -27 -627 -146 -900 -240 -311 -107 -856 -335 -1396 -586
-562 -260 -625 -289 -754 -346 -69 -30 -190 -82 -269 -114 l-144 -59 -101 68
c-393 267 -781 428 -1231 511 -253 47 -734 99 -955 104 -82 2 -95 0 -98 -15
-2 -9 25 -65 59 -124 70 -123 199 -382 199 -402 0 -8 -3 -12 -7 -10 -5 2 -136
88 -293 192 -157 104 -301 199 -320 211 -19 13 -73 47 -120 77 -73 47 -190
119 -248 153 -9 6 -55 33 -102 61 -232 141 -530 292 -815 414 -93 40 -179 76
-190 81 -60 26 -217 70 -316 88 -140 26 -220 26 -276 0z m8631 -788 c9 -16 12
-31 9 -35 -4 -3 3 -15 15 -26 24 -23 28 -50 11 -67 -8 -8 -5 -15 8 -24 31 -22
47 -124 34 -212 -6 -40 -18 -171 -26 -292 -47 -684 -131 -1229 -295 -1920 -16
-66 -72 -305 -125 -532 -152 -651 -259 -1028 -376 -1321 -28 -69 -55 -135 -61
-145 -8 -17 -21 -7 -116 85 -59 57 -124 114 -144 127 l-38 23 63 70 c34 39 83
95 110 125 26 29 47 60 47 69 0 29 -237 126 -473 193 l-131 38 119 120 c66 66
165 153 219 194 55 41 104 81 109 91 8 12 -1 42 -37 125 -75 169 -149 287
-238 378 l-78 79 32 24 c18 14 107 100 198 191 154 156 244 263 262 311 11 29
-20 56 -73 65 -100 15 -373 179 -401 240 -8 19 -1 36 48 111 31 49 158 247
282 439 255 397 438 671 705 1058 102 147 211 308 242 357 31 50 63 90 71 90
7 0 20 -13 28 -29z m-3459 -2943 c33 -31 36 -38 42 -110 5 -68 3 -79 -16 -106
-29 -41 -152 -117 -221 -136 -30 -8 -78 -18 -107 -20 -66 -6 -211 10 -229 25
-35 29 -2 150 55 202 89 80 251 157 333 157 24 0 50 5 58 10 26 17 49 11 85
-22z m-3400 -88 c3 -5 26 -10 51 -10 l44 0 0 -180 0 -180 -42 21 c-60 30 -116
76 -133 109 -8 15 -15 62 -16 110 -2 82 -1 84 30 112 32 29 55 35 66 18z
m4400 -570 c90 -31 278 -142 380 -223 130 -104 303 -285 399 -417 46 -63 116
-178 155 -255 64 -125 77 -160 117 -320 74 -295 97 -463 98 -705 0 -233 -12
-348 -55 -535 -100 -438 -258 -693 -609 -984 -170 -142 -455 -286 -825 -419
-451 -161 -1200 -318 -1730 -361 -236 -20 -643 -34 -795 -27 -301 12 -763 79
-1075 157 -356 89 -941 319 -1180 464 -184 112 -386 293 -433 388 -26 53 -27
31 9 297 24 178 29 321 12 327 -12 4 -27 -39 -38 -110 l-6 -39 -20 39 c-33 63
-127 352 -148 453 -33 157 -69 465 -76 635 -5 129 -3 176 10 240 18 88 73 242
114 320 l26 50 6 -115 c19 -326 138 -768 276 -1020 57 -103 80 -130 113 -130
16 0 31 4 35 10 3 5 -9 37 -26 72 -66 132 -128 464 -154 828 -8 118 -15 249
-15 292 l0 76 38 31 c89 70 271 149 381 165 l44 7 -6 -38 c-72 -446 6 -983
198 -1378 62 -128 166 -305 190 -325 10 -8 40 -15 69 -16 28 0 146 -4 261 -8
204 -8 213 -7 305 17 122 32 149 43 157 63 11 30 -19 31 -106 3 -138 -44 -226
-51 -449 -37 l-194 12 -27 41 c-16 22 -54 84 -85 138 -52 88 -57 102 -51 135
10 56 107 229 118 211 1 -2 18 -38 38 -79 80 -163 180 -253 307 -275 94 -15
207 50 282 162 32 50 74 174 86 256 3 26 10 47 14 47 5 0 23 -19 42 -42 l33
-42 0 -251 c0 -243 1 -250 20 -250 27 0 33 53 34 293 1 171 -14 368 -69 889
-11 110 -35 193 -54 193 -7 0 -22 -31 -34 -69 -29 -89 -90 -151 -149 -151 -50
1 -113 30 -145 68 -56 67 -99 256 -84 375 7 55 8 57 37 57 56 0 234 -42 325
-77 81 -31 96 -40 124 -79 37 -52 64 -123 79 -209 19 -112 51 -450 61 -650 6
-110 13 -208 16 -218 16 -52 285 -210 449 -265 134 -45 566 -54 814 -18 162
25 374 123 635 296 l133 88 -8 50 c-4 28 -12 110 -18 184 -41 497 -53 875 -28
882 6 2 57 17 112 35 55 17 110 31 123 31 20 0 23 -4 18 -27 -25 -120 -33
-599 -15 -882 20 -320 96 -630 182 -743 l27 -35 152 -6 c317 -14 454 -4 662
49 156 39 183 54 210 116 58 133 73 249 126 993 13 181 0 264 -43 265 -5 0
-36 -26 -70 -59 -90 -85 -126 -98 -185 -67 -77 40 -106 107 -104 241 1 105 31
252 54 266 15 10 141 3 223 -12 122 -21 303 -89 400 -149 l36 -22 -1 -237 c-3
-432 -55 -793 -140 -962 -36 -70 -32 -82 26 -77 38 3 41 6 100 105 161 267
275 675 291 1038 3 77 10 145 15 152 14 17 -4 45 -59 90 -189 156 -433 265
-740 330 -116 24 -149 27 -348 27 -201 1 -258 -4 -385 -30 -29 -7 482 335 555
371 118 57 307 68 430 25z m-4750 -185 c33 -8 92 -31 131 -50 61 -30 89 -54
199 -170 70 -75 126 -137 124 -140 -3 -2 -38 5 -79 17 -107 29 -359 36 -490
14 -250 -44 -528 -176 -682 -324 -21 -20 -38 -33 -38 -29 0 4 28 51 61 105
146 231 385 497 504 560 64 33 177 41 270 17z m3643 -1643 c44 -179 138 -323
253 -387 47 -26 64 -30 129 -30 97 1 153 29 239 122 68 73 107 143 137 248 10
36 24 65 30 65 15 0 99 -164 119 -233 18 -62 17 -71 -17 -184 -20 -64 -26 -73
-58 -87 -75 -33 -258 -72 -424 -91 -33 -4 -155 -4 -273 0 l-214 8 -34 71 c-18
39 -48 120 -66 179 l-31 109 17 65 c18 65 57 133 118 204 18 21 37 38 42 38 6
0 21 -43 33 -97z m-1732 -2837 c104 -22 148 -44 228 -111 116 -99 166 -213
166 -385 0 -177 -49 -309 -159 -422 -106 -111 -272 -189 -431 -203 l-70 -7 0
29 c0 46 19 210 26 228 3 9 13 16 21 16 8 0 30 15 49 34 31 31 34 40 34 91 0
95 -34 134 -116 135 -62 0 -111 -29 -137 -82 -25 -50 -14 -114 26 -150 29 -28
29 -29 19 -90 -6 -35 -14 -93 -17 -129 l-7 -66 -47 9 c-133 24 -223 70 -296
150 l-57 63 20 -50 c11 -27 27 -68 37 -90 26 -62 1 -28 -38 50 -71 144 -92
288 -63 435 73 375 441 621 812 545z"/>
<path d="M8310 4715 c-173 -76 -296 -114 -405 -123 l-80 -7 -3 -31 c-3 -27 10
-45 104 -145 91 -98 133 -133 258 -222 17 -12 16 -15 -25 -42 -24 -17 -87 -52
-139 -80 -80 -42 -95 -54 -98 -77 -3 -22 6 -34 55 -72 110 -87 353 -141 463
-103 55 19 37 32 -47 34 -151 2 -303 43 -377 99 l-48 36 109 57 c236 125 254
148 151 195 -89 40 -186 119 -303 246 l-50 54 85 13 c183 29 549 185 525 224
-10 15 -25 11 -175 -56z"/>
<path d="M5380 4264 c-96 -77 -210 -114 -353 -114 -85 0 -88 -1 -97 -26 -24
-62 -1 -199 52 -312 57 -122 176 -235 262 -249 32 -5 36 -3 36 16 0 15 -12 27
-44 42 -24 11 -61 35 -81 52 l-37 32 22 55 c31 77 98 175 172 247 70 69 223
169 272 178 17 4 70 0 116 -9 47 -8 106 -17 132 -21 43 -6 51 -11 91 -63 44
-58 65 -67 110 -47 25 11 57 -64 57 -135 0 -108 -18 -179 -61 -241 -40 -56
-43 -79 -13 -79 43 0 168 209 199 335 20 77 18 169 -3 225 l-18 45 -169 6
c-201 8 -290 20 -445 61 -63 16 -124 32 -135 34 -13 3 -37 -9 -65 -32z m650
-121 c0 -5 -9 -19 -19 -32 l-18 -23 -22 31 -22 31 40 0 c23 0 41 -3 41 -7z
m-871 -63 c-13 -36 -19 -37 -48 -6 -25 26 -18 34 31 35 26 1 26 0 17 -29z"/>
</g>
</svg>
